<svg xmlns="http://www.w3.org/2000/svg" xml:space="preserve" id="Layer_1" x="0" y="0" version="1.1" viewBox="0 0 180 50"><style>.st0,.st1{fill:#fff}.st1{stroke:#000;stroke-width:.25;stroke-miterlimit:10}</style><path d="M175.38 1.14v2.39h-.54V1.14h-.81V.66h2.17v.48zM178.81 1.47h-.02l-.22.46-.59 1.09-.59-1.09-.22-.46h-.02v2.06h-.51V.66h.61l.74 1.4h.01l.73-1.4h.59v2.87h-.51z" class="st0"/><path d="M1.52 8.65c0-2.09 1.07-3.23 3.04-3.23h11.66V9.4H5.57c-.13 0-.2.08-.2.21v2.26h10.85v3.66H5.37v4.28H1.52zM22.15 17.98c-1.15-.99-1.8-2.57-1.8-4.32V11.6c0-1.77.63-3.32 1.74-4.3 1.52-1.36 4.26-2.19 7.2-2.19 3.04 0 5.85.89 7.4 2.34 1 .93 1.56 2.44 1.56 4.15v2.06c0 1.82-.67 3.41-1.87 4.41-1.53 1.28-4.22 2.06-7.1 2.06-2.85 0-5.58-.83-7.13-2.15zm11.56-2.84c.51-.39.73-1.01.73-2.02v-1.01c0-1.02-.21-1.61-.69-2-.82-.66-2.55-1.08-4.46-1.08-1.86 0-3.5.37-4.32.97-.57.42-.83 1.07-.83 2.11v1.01c0 1.01.27 1.68.85 2.11.86.59 2.53.97 4.3.97 1.88-.01 3.58-.41 4.42-1.06zM56.83 20.45l-4.14-4.9H47v4.28h-3.85V8.67c0-2.09 1.07-3.25 3.04-3.25h8.33c3.95 0 5.5 1.66 5.5 5.05 0 2.56-.99 4.12-2.91 4.75l2.97 3.08zm-9.84-8.58h7.77c.87 0 1.4-.11 1.4-1.23 0-1.1-.53-1.25-1.4-1.25H47.2c-.13 0-.2.08-.2.21v2.27zM65.52 16.58V8.65c0-2.09 1.07-3.23 3.04-3.23h8.25c3.37 0 5.25.95 5.25 3.87 0 1.78-.63 2.82-2.15 3.29 1.52.49 2.15 1.53 2.15 3.31 0 2.79-1.89 3.91-5.25 3.91h-8.25c-1.97 0-3.04-1.14-3.04-3.22zm10.91-5.72c1.09 0 1.5-.15 1.5-.77 0-.6-.41-.73-1.5-.73h-6.87c-.13 0-.2.08-.2.21v1.29zm0 4.95c1.09 0 1.5-.17 1.5-.8 0-.6-.41-.71-1.5-.71h-7.08v1.29c0 .14.07.21.2.21h6.88zM87.4 5.42h3.83V19.8H87.4zM96.57 16.58V8.65c0-2.09 1.07-3.23 3.04-3.23h7.46c4.75 0 6.67 2.37 6.67 7.18 0 4.88-1.99 7.2-6.83 7.2h-7.3c-1.96 0-3.04-1.14-3.04-3.22zm10.18-.77c2.35 0 3.18-.26 3.18-3.2 0-2.95-.83-3.18-3.18-3.18h-6.14c-.13 0-.2.08-.2.21v5.96c0 .14.07.21.2.21zM118.58 16.58V8.65c0-2.09 1.07-3.23 3.04-3.23h7.46c4.75 0 6.67 2.37 6.67 7.18 0 4.88-1.99 7.2-6.83 7.2h-7.3c-1.96 0-3.04-1.14-3.04-3.22zm10.18-.77c2.35 0 3.18-.26 3.18-3.2 0-2.95-.83-3.18-3.18-3.18h-6.14c-.13 0-.2.08-.2.21v5.96c0 .14.07.21.2.21zM140.08 16.58V8.65c0-2.09 1.07-3.23 3.04-3.23h12.11V9.4h-11.09c-.13 0-.2.08-.2.21v1.29h11.3v3.42h-11.3v1.29c0 .14.07.21.2.21h11.09v3.98h-12.11c-1.96 0-3.04-1.14-3.04-3.22zM173.59 19.25l-9.18-8.18c-.07-.06-.13-.08-.17-.05-.04.02-.07.08-.07.18v8.62h-3.79V8.13c0-2.36.95-2.9 2.05-2.9.63 0 1.3.22 1.95.8l9.18 8.18c.07.06.13.08.17.05.05-.02.08-.08.08-.18V5.42h3.79v11.72c0 2.37-.95 2.9-2.05 2.9-.64 0-1.31-.22-1.96-.79zM1.51 34.34c0-2.09 1.07-3.22 3.04-3.22l7.66-.02c3.95-.01 5.49 1.66 5.49 5.05 0 3.44-1.58 5.07-5.61 5.07H5.36v4.28H1.51zm11.11 3.21c.87 0 1.4-.11 1.4-1.23 0-1.1-.53-1.25-1.4-1.25H5.57c-.13 0-.2.08-.2.22v2.26zM19.94 42.26V31.1h3.85v10.19c0 .14.07.21.2.21h10.64v3.98H22.98c-1.97 0-3.04-1.14-3.04-3.22zM51.73 43.14H41.46l-1.81 2.67-3.3-1.87 8.29-12.13c.46-.68 1.13-1.03 1.97-1.03.81 0 1.48.36 1.95 1.03l8.29 12.13-3.3 1.87zm-2.23-3.29-2.75-4.06c-.04-.06-.08-.11-.14-.11s-.1.04-.14.11l-2.76 4.06zM72.18 44.92 63 36.74c-.07-.06-.13-.08-.17-.05-.05.02-.07.08-.07.18v8.62h-3.79V33.81c0-2.37.95-2.9 2.05-2.9.63 0 1.3.22 1.95.8l9.17 8.18c.07.06.13.08.17.06.05-.02.08-.08.08-.18V31.1h3.79v11.72c0 2.37-.95 2.9-2.05 2.9-.64 0-1.3-.22-1.95-.8zM79.41 42.26v-7.93c0-2.09 1.07-3.22 3.04-3.22h12.1v3.98H83.47c-.13 0-.2.08-.2.22v1.29h11.29V40h-11.3v1.29c0 .14.07.21.2.21h11.08v3.98h-12.1c-1.95 0-3.03-1.14-3.03-3.22zM113.03 35.08h-6.1v10.41h-3.83V35.08h-6.12V31.1h16.05zM111.21 41.5H115v3.98h-3.79zM117.63 38.28c0-4.82 1.92-7.18 6.67-7.18h8.49v4h-8.17c-2.35 0-3.18.24-3.18 3.18s.83 3.2 3.18 3.2h8.17v4h-8.33c-4.84 0-6.83-2.32-6.83-7.2zM136.92 43.65c-1.14-.99-1.8-2.57-1.8-4.32v-2.06c0-1.77.63-3.32 1.74-4.3 1.52-1.36 4.26-2.19 7.19-2.19 3.04 0 5.85.89 7.4 2.34 1 .93 1.56 2.44 1.56 4.15v2.06c0 1.82-.67 3.41-1.86 4.41-1.53 1.28-4.22 2.06-7.09 2.06-2.85 0-5.58-.82-7.14-2.15zm11.55-2.83c.51-.39.73-1.01.73-2.02v-1.01c0-1.02-.21-1.61-.69-2-.82-.66-2.55-1.08-4.46-1.08-1.86 0-3.5.37-4.32.97-.57.42-.83 1.07-.83 2.11v1.01c0 1.01.27 1.68.85 2.11.86.59 2.52.97 4.29.97 1.9-.01 3.6-.42 4.43-1.06zM164.87 44.79l-5.25-7.45c-.05-.07-.09-.1-.15-.1-.07 0-.12.05-.12.17v8.07h-3.79V33.66c0-1.78.83-2.84 2.25-2.84 1.05 0 1.83.4 2.49 1.33l6.38 9c.04.06.1.09.15.09s.1-.03.14-.09l6.38-9c.66-.93 1.44-1.33 2.49-1.33 1.42 0 2.25 1.05 2.25 2.84v11.83h-3.79V37.4c0-.12-.04-.17-.11-.17-.06 0-.1.03-.14.1l-5.26 7.47c-.5.71-1.17 1.03-1.97 1.03-.78 0-1.45-.32-1.95-1.04z" class="st1"/><path d="m1.28 23.37-.01 3.98H179v-3.98z" style="fill:#e30137;stroke:#000;stroke-width:.2507;stroke-miterlimit:10"/></svg>